<?xml version="1.0" encoding="utf-8"?>
<!-- Generator: Adobe Illustrator 18.1.1, SVG Export Plug-In . SVG Version: 6.00 Build 0)  -->
<svg version="1.1" id="Calque_1" xmlns="http://www.w3.org/2000/svg" xmlns:xlink="http://www.w3.org/1999/xlink" x="0px" y="0px"
	 viewBox="0 17.1 150 103" enable-background="new 0 17.1 150 103" xml:space="preserve">
<path fill="#F2F2F2" d="M18.3,41.9c5.6,0,9.8,1.4,12.5,4.2c0.2,0.2,0.2,0.3,0.3,0.5c0.3,0.5,0.5,0.9,0.5,1.5c0,0.5-0.2,0.9-0.5,1.4
	c-0.3,0.5-0.6,0.8-1.1,1.1s-0.9,0.5-1.5,0.5c-0.5,0-0.9-0.2-1.4-0.5c-0.2-0.2-0.5-0.3-0.6-0.5c-2-1.8-4.7-2.7-8.4-2.7
	c-7.4,0-11.1,3.8-11.1,11.1s3.8,11.1,11.1,11.1c3.8,0,6.5-0.9,8.3-2.7c0.2-0.2,0.3-0.2,0.6-0.3c0.5-0.3,0.9-0.5,1.5-0.5
	c0.5,0,1.1,0.2,1.5,0.5c0.5,0.3,0.8,0.6,1.1,1.1c0.3,0.5,0.5,0.9,0.5,1.4c0,0.5-0.2,1.1-0.5,1.5c-0.2,0.2-0.2,0.3-0.3,0.6
	c-2.7,2.7-6.9,4.2-12.5,4.2C7.2,75.1,1.7,69.6,1.7,58.6C1.7,47.5,7.2,41.9,18.3,41.9z"/>
<path fill="#F2F2F2" d="M78.7,72.4c0,0.5-0.2,0.9-0.3,1.4c-0.3,0.5-0.6,0.8-1.1,1.1c-0.5,0.3-0.9,0.3-1.4,0.3
	c-0.5,0-0.9-0.2-1.4-0.3c-0.5-0.3-0.8-0.6-1.1-1.1c-0.3-0.5-0.3-0.9-0.3-1.4V58.6c0-11.1,5.6-16.7,16.7-16.7s16.7,5.6,16.7,16.7
	v13.8c0,0.5-0.2,0.9-0.3,1.4c-0.3,0.5-0.6,0.8-1.1,1.1c-0.5,0.3-0.9,0.3-1.4,0.3c-0.5,0-0.9-0.2-1.4-0.3c-0.5-0.3-0.8-0.6-1.1-1.1
	c-0.3-0.5-0.3-0.9-0.3-1.4V58.6c0-7.4-3.8-11.1-11.1-11.1S79,51.2,79,58.6v13.8H78.7z"/>
<path fill="#F2F2F2" d="M143.6,41.9c0,11.1-14.3,33.2-25.4,33.2h-5.6V44.6c0-0.5,0.2-0.9,0.3-1.4c0.5-0.5,0.8-0.8,1.2-1.1
	s0.9-0.3,1.4-0.3c0.5,0,0.9,0.2,1.4,0.3c0.5,0.3,0.8,0.6,1.1,1.1c0.3,0.5,0.3,0.9,0.3,1.4v24.9c7.4,0,19.8-20.3,19.8-27.6
	C138,41.9,143.6,41.9,143.6,41.9z"/>
<path fill="#F2F2F2" d="M52.4,41.9c-11.1,0-16.7,5.6-16.7,16.7v50.6h5.6V72c2.7,2.1,6.5,3.2,11.1,3.2c11.1,0,16.7-5.6,16.7-16.4
	C68.9,47.5,63.4,41.9,52.4,41.9z M52.4,69.6c-7.4,0-11-3.8-11.1-11.1c0-7.5,3.8-11.1,11.1-11.1c7.5,0,11.1,3.6,11.1,11.1
	C63.5,65.9,59.8,69.6,52.4,69.6z"/>
</svg>
