<svg xmlns="http://www.w3.org/2000/svg" xmlns:xlink="http://www.w3.org/1999/xlink" version="1.1" x="0px" y="0px" viewBox="0 0 100 125" enable-background="new 0 0 100 100" xml:space="preserve"><g><g><path d="M97.938,68.771h-6.316V20.81c0-1.115-0.905-2.021-2.021-2.021H10.399c-1.115,0-2.021,0.906-2.021,2.021v47.961H2.062    C0.924,68.771,0,69.694,0,70.832v2.084c0,0.103,0.008,0.204,0.022,0.306c0.527,3.521,3.348,7.447,7.159,7.922    c0.083,0.01,0.169,0.017,0.252,0.017l84.51,0.071h0.003c4.404,0,7.604-4.197,8.041-8.085c0.009-0.075,0.013-0.152,0.013-0.23    v-2.084C100,69.694,99.076,68.771,97.938,68.771z M12.42,22.831h75.16v45.939H59.985c-0.133,0-0.262,0.016-0.386,0.04H41.16    c-0.128-0.025-0.261-0.04-0.396-0.04H12.42V22.831z M91.948,77.107L7.586,77.036c-1.461-0.261-3.024-2.16-3.434-4.143h35.086    c0.702,1.246,2.017,2.085,3.519,2.085h15.233c1.502,0,2.816-0.839,3.52-2.085h34.35C95.538,74.926,93.854,77.107,91.948,77.107z     M38.84,37.498c-0.814-0.814-2.133-0.814-2.947,0l-8.689,8.689c-0.814,0.814-0.814,2.133,0,2.948l8.689,8.688    c0.407,0.407,0.94,0.611,1.474,0.611s1.066-0.204,1.474-0.611c0.814-0.813,0.814-2.133,0-2.947l-7.216-7.215l7.216-7.216    C39.654,39.631,39.654,38.312,38.84,37.498z M59.361,57.823c0.406,0.407,0.939,0.611,1.474,0.611c0.533,0,1.066-0.204,1.474-0.611    l8.688-8.688c0.814-0.814,0.814-2.133,0-2.948l-8.688-8.689c-0.814-0.814-2.134-0.814-2.947,0c-0.814,0.814-0.814,2.133,0,2.947    l7.215,7.216l-7.215,7.215C58.547,55.69,58.547,57.01,59.361,57.823z M41.793,62.275c0.299,0.148,0.617,0.22,0.931,0.22    c0.765,0,1.5-0.422,1.866-1.152l12.506-25.011c0.515-1.03,0.098-2.281-0.933-2.796c-1.029-0.513-2.281-0.098-2.797,0.932    L40.861,59.479C40.346,60.509,40.763,61.76,41.793,62.275z"/></g></g><text x="0" y="115" fill="#000000" font-size="5px" font-weight="bold" font-family="'Helvetica Neue', Helvetica, Arial-Unicode, Arial, Sans-serif">Created by Konrad Michalik</text><text x="0" y="120" fill="#000000" font-size="5px" font-weight="bold" font-family="'Helvetica Neue', Helvetica, Arial-Unicode, Arial, Sans-serif">from the Noun Project</text></svg>