<svg xmlns="http://www.w3.org/2000/svg" xmlns:xlink="http://www.w3.org/1999/xlink" version="1.1" x="0px" y="0px" viewBox="0 0 72 90" enable-background="new 0 0 72 72" xml:space="preserve"><g><path fill="#000000" d="M22.8,30.3H1.4c-0.5,0-0.9,0.4-0.9,0.9V57c0,0.5,0.4,0.9,0.9,0.9h21.4c0.5,0,0.9-0.4,0.9-0.9V31.2   C23.7,30.7,23.3,30.3,22.8,30.3z M9.4,31.3h5.4c0.2,0,0.4,0.2,0.4,0.4c0,0.2-0.2,0.4-0.4,0.4H9.4c-0.2,0-0.4-0.2-0.4-0.4   C9,31.5,9.2,31.3,9.4,31.3z M12.1,56.9c-0.8,0-1.5-0.7-1.5-1.5c0-0.8,0.7-1.5,1.5-1.5c0.8,0,1.5,0.7,1.5,1.5   C13.6,56.3,12.9,56.9,12.1,56.9z M22.2,52.3c0,0.4-0.3,0.7-0.7,0.7H2.7C2.3,53,2,52.7,2,52.3V34.1c0-0.4,0.3-0.7,0.7-0.7h18.8   c0.4,0,0.7,0.3,0.7,0.7V52.3z"/><path fill="#000000" d="M70.7,38.6H58.8c-0.4,0-0.8,0.4-0.8,0.8v21c0,0.4,0.4,0.8,0.8,0.8h11.9c0.4,0,0.8-0.4,0.8-0.8v-21   C71.5,39,71.1,38.6,70.7,38.6z M62.3,39.5h4.9c0.2,0,0.4,0.2,0.4,0.4c0,0.2-0.2,0.4-0.4,0.4h-4.9c-0.2,0-0.4-0.2-0.4-0.4   C61.9,39.7,62.1,39.5,62.3,39.5z M64.7,60.4c-0.8,0-1.4-0.6-1.4-1.4s0.6-1.4,1.4-1.4c0.8,0,1.4,0.6,1.4,1.4S65.5,60.4,64.7,60.4z    M70.1,56.1c0,0.3-0.3,0.6-0.6,0.6H60c-0.3,0-0.6-0.3-0.6-0.6v-14c0-0.3,0.3-0.6,0.6-0.6h9.5c0.3,0,0.6,0.3,0.6,0.6V56.1z"/><path fill="#000000" d="M27.6,52.3h6.7c0.4,0,0.7,0.3,0.7,0.7v2.2c0,0.4-0.3,0.7-0.6,0.7c-4.1,0.6-7,1.9-7,3.4   c0,2.1,5.3,3.7,11.7,3.7c6.5,0,11.7-1.7,11.7-3.7c0-1.5-2.9-2.8-7-3.4c-0.4-0.1-0.6-0.4-0.6-0.7V53c0-0.4,0.3-0.7,0.7-0.7h10.3   c0.5,0,0.9-0.4,0.9-0.9v-2.2c0-0.5-0.4-0.9-0.9-0.9H27.6c-0.5,0-0.9,0.4-0.9,0.9v2.2C26.7,51.8,27.1,52.3,27.6,52.3z"/><path fill="#000000" d="M61.9,9H16.1c-3.1,0-5.6,2.5-5.6,5.6v12.1c0,0.4,0.3,0.6,0.6,0.6h2.7c0.4,0,0.6-0.3,0.6-0.6V15.3   c0-1.3,1.1-2.4,2.4-2.4h44.2c1.3,0,2.4,1.1,2.4,2.4V35c0,0.4,0.3,0.6,0.6,0.6h2.7c0.4,0,0.6-0.3,0.6-0.6V14.5   C67.5,11.5,65,9,61.9,9z"/></g><text x="0" y="87" fill="#000000" font-size="5px" font-weight="bold" font-family="'Helvetica Neue', Helvetica, Arial-Unicode, Arial, Sans-serif">Created by Creative Stall</text><text x="0" y="92" fill="#000000" font-size="5px" font-weight="bold" font-family="'Helvetica Neue', Helvetica, Arial-Unicode, Arial, Sans-serif">from the Noun Project</text></svg>