<svg xmlns="http://www.w3.org/2000/svg" xmlns:xlink="http://www.w3.org/1999/xlink" version="1.1" x="0px" y="0px" viewBox="0 0 100 125" enable-background="new 0 0 100 100" xml:space="preserve"><g><path d="M47.106,28.189H5.812C2.602,28.189,0,30.775,0,33.969v57.888c0,3.187,2.602,5.789,5.812,5.789h41.294   c3.187,0,5.788-2.603,5.788-5.789V33.969C52.895,30.775,50.293,28.189,47.106,28.189z M27.67,32.537c1.603,0,2.89,1.291,2.89,2.894   c0,1.595-1.287,2.894-2.89,2.894c-1.591,0-2.882-1.299-2.882-2.894C24.788,33.827,26.083,32.537,27.67,32.537z M18.83,32.537   c1.587,0,2.882,1.291,2.882,2.894c0,1.595-1.295,2.894-2.882,2.894c-1.612,0-2.911-1.299-2.911-2.894   C15.919,33.827,17.214,32.537,18.83,32.537z M10.123,32.537c1.607,0,2.902,1.291,2.902,2.894c0,1.595-1.291,2.894-2.902,2.894   c-1.583,0-2.878-1.299-2.878-2.894C7.245,33.827,8.54,32.537,10.123,32.537z M47.106,91.857H5.812V42.729h41.294V91.857z"/><path d="M94.204,2.354H24.768c-3.207,0-5.788,2.586-5.788,5.788v16.776h5.788v-8.025h69.437v49.129H56.166v5.788h38.038   c3.19,0,5.796-2.602,5.796-5.788V8.142C100,4.94,97.395,2.354,94.204,2.354z M29.103,12.485c-1.599,0-2.886-1.283-2.886-2.886   c0-1.616,1.287-2.894,2.886-2.894c1.595,0,2.894,1.274,2.894,2.894C31.997,11.203,30.694,12.485,29.103,12.485z M37.785,12.485   c-1.607,0-2.894-1.283-2.894-2.886c0-1.616,1.283-2.894,2.894-2.894c1.599,0,2.898,1.274,2.898,2.894   C40.679,11.203,39.38,12.485,37.785,12.485z M46.653,12.485c-1.607,0-2.91-1.283-2.91-2.886c0-1.616,1.299-2.894,2.91-2.894   c1.579,0,2.87,1.274,2.87,2.894C49.523,11.203,48.232,12.485,46.653,12.485z"/></g><text x="0" y="115" fill="#000000" font-size="5px" font-weight="bold" font-family="'Helvetica Neue', Helvetica, Arial-Unicode, Arial, Sans-serif">Created by Stefan Parnarov</text><text x="0" y="120" fill="#000000" font-size="5px" font-weight="bold" font-family="'Helvetica Neue', Helvetica, Arial-Unicode, Arial, Sans-serif">from the Noun Project</text></svg>